<mxfile host="Electron" modified="2024-05-31T01:21:48.440Z" agent="Mozilla/5.0 (Windows NT 10.0; Win64; x64) AppleWebKit/537.36 (KHTML, like Gecko) draw.io/22.0.0 Chrome/114.0.5735.289 Electron/25.8.3 Safari/537.36" etag="RTeKIosF7pAW7Rlr1RKw" version="22.0.0" type="device">
  <diagram name="Page-1" id="hcupUOhgb61V8r5-_kg-">
    <mxGraphModel dx="2537" dy="1040" grid="1" gridSize="10" guides="1" tooltips="1" connect="1" arrows="1" fold="1" page="1" pageScale="1" pageWidth="850" pageHeight="1100" math="0" shadow="0">
      <root>
        <mxCell id="0" />
        <mxCell id="1" parent="0" />
        <mxCell id="w5KwIboTp7XOxFCGDFvr-3" value="" style="edgeStyle=orthogonalEdgeStyle;rounded=0;orthogonalLoop=1;jettySize=auto;html=1;endArrow=none;endFill=0;" edge="1" parent="1" source="w5KwIboTp7XOxFCGDFvr-1" target="w5KwIboTp7XOxFCGDFvr-2">
          <mxGeometry relative="1" as="geometry" />
        </mxCell>
        <mxCell id="w5KwIboTp7XOxFCGDFvr-7" value="" style="edgeStyle=orthogonalEdgeStyle;rounded=0;orthogonalLoop=1;jettySize=auto;html=1;endArrow=none;endFill=0;" edge="1" parent="1" source="w5KwIboTp7XOxFCGDFvr-1" target="w5KwIboTp7XOxFCGDFvr-6">
          <mxGeometry relative="1" as="geometry" />
        </mxCell>
        <mxCell id="w5KwIboTp7XOxFCGDFvr-9" value="" style="edgeStyle=orthogonalEdgeStyle;rounded=0;orthogonalLoop=1;jettySize=auto;html=1;endArrow=none;endFill=0;" edge="1" parent="1" source="w5KwIboTp7XOxFCGDFvr-1" target="w5KwIboTp7XOxFCGDFvr-8">
          <mxGeometry relative="1" as="geometry" />
        </mxCell>
        <mxCell id="w5KwIboTp7XOxFCGDFvr-1" value="Cell Block A Gate" style="rounded=0;whiteSpace=wrap;html=1;" vertex="1" parent="1">
          <mxGeometry x="-90" y="410" width="120" height="60" as="geometry" />
        </mxCell>
        <mxCell id="w5KwIboTp7XOxFCGDFvr-5" value="" style="edgeStyle=orthogonalEdgeStyle;rounded=0;orthogonalLoop=1;jettySize=auto;html=1;endArrow=none;endFill=0;" edge="1" parent="1" source="w5KwIboTp7XOxFCGDFvr-2" target="w5KwIboTp7XOxFCGDFvr-4">
          <mxGeometry relative="1" as="geometry" />
        </mxCell>
        <mxCell id="w5KwIboTp7XOxFCGDFvr-2" value="Cell Block A 1" style="whiteSpace=wrap;html=1;rounded=0;" vertex="1" parent="1">
          <mxGeometry x="-90" y="270" width="120" height="60" as="geometry" />
        </mxCell>
        <mxCell id="w5KwIboTp7XOxFCGDFvr-4" value="Cell Block A 2" style="whiteSpace=wrap;html=1;rounded=0;" vertex="1" parent="1">
          <mxGeometry x="-90" y="130" width="120" height="60" as="geometry" />
        </mxCell>
        <mxCell id="w5KwIboTp7XOxFCGDFvr-33" value="" style="edgeStyle=orthogonalEdgeStyle;rounded=0;orthogonalLoop=1;jettySize=auto;html=1;endArrow=none;endFill=0;" edge="1" parent="1" source="w5KwIboTp7XOxFCGDFvr-6" target="w5KwIboTp7XOxFCGDFvr-32">
          <mxGeometry relative="1" as="geometry" />
        </mxCell>
        <mxCell id="w5KwIboTp7XOxFCGDFvr-6" value="Yard 1" style="whiteSpace=wrap;html=1;rounded=0;" vertex="1" parent="1">
          <mxGeometry x="-290" y="410" width="120" height="60" as="geometry" />
        </mxCell>
        <mxCell id="w5KwIboTp7XOxFCGDFvr-11" value="" style="edgeStyle=orthogonalEdgeStyle;rounded=0;orthogonalLoop=1;jettySize=auto;html=1;endArrow=none;endFill=0;" edge="1" parent="1" source="w5KwIboTp7XOxFCGDFvr-8" target="w5KwIboTp7XOxFCGDFvr-10">
          <mxGeometry relative="1" as="geometry" />
        </mxCell>
        <mxCell id="w5KwIboTp7XOxFCGDFvr-8" value="Yard 2" style="whiteSpace=wrap;html=1;rounded=0;" vertex="1" parent="1">
          <mxGeometry x="110" y="410" width="120" height="60" as="geometry" />
        </mxCell>
        <mxCell id="w5KwIboTp7XOxFCGDFvr-13" value="" style="edgeStyle=orthogonalEdgeStyle;rounded=0;orthogonalLoop=1;jettySize=auto;html=1;endArrow=none;endFill=0;" edge="1" parent="1" source="w5KwIboTp7XOxFCGDFvr-10" target="w5KwIboTp7XOxFCGDFvr-12">
          <mxGeometry relative="1" as="geometry" />
        </mxCell>
        <mxCell id="w5KwIboTp7XOxFCGDFvr-19" value="" style="edgeStyle=orthogonalEdgeStyle;rounded=0;orthogonalLoop=1;jettySize=auto;html=1;endArrow=none;endFill=0;" edge="1" parent="1" source="w5KwIboTp7XOxFCGDFvr-10" target="w5KwIboTp7XOxFCGDFvr-18">
          <mxGeometry relative="1" as="geometry" />
        </mxCell>
        <mxCell id="w5KwIboTp7XOxFCGDFvr-27" value="" style="edgeStyle=orthogonalEdgeStyle;rounded=0;orthogonalLoop=1;jettySize=auto;html=1;endArrow=none;endFill=0;" edge="1" parent="1" source="w5KwIboTp7XOxFCGDFvr-10" target="w5KwIboTp7XOxFCGDFvr-26">
          <mxGeometry relative="1" as="geometry" />
        </mxCell>
        <mxCell id="w5KwIboTp7XOxFCGDFvr-10" value="Cell Block B Gate" style="whiteSpace=wrap;html=1;rounded=0;" vertex="1" parent="1">
          <mxGeometry x="310" y="410" width="120" height="60" as="geometry" />
        </mxCell>
        <mxCell id="w5KwIboTp7XOxFCGDFvr-15" value="" style="edgeStyle=orthogonalEdgeStyle;rounded=0;orthogonalLoop=1;jettySize=auto;html=1;endArrow=none;endFill=0;" edge="1" parent="1" source="w5KwIboTp7XOxFCGDFvr-12" target="w5KwIboTp7XOxFCGDFvr-14">
          <mxGeometry relative="1" as="geometry" />
        </mxCell>
        <mxCell id="w5KwIboTp7XOxFCGDFvr-12" value="Yard 3" style="whiteSpace=wrap;html=1;rounded=0;" vertex="1" parent="1">
          <mxGeometry x="510" y="410" width="120" height="60" as="geometry" />
        </mxCell>
        <mxCell id="w5KwIboTp7XOxFCGDFvr-17" value="" style="edgeStyle=orthogonalEdgeStyle;rounded=0;orthogonalLoop=1;jettySize=auto;html=1;endArrow=none;endFill=0;" edge="1" parent="1" source="w5KwIboTp7XOxFCGDFvr-14" target="w5KwIboTp7XOxFCGDFvr-16">
          <mxGeometry relative="1" as="geometry" />
        </mxCell>
        <mxCell id="w5KwIboTp7XOxFCGDFvr-23" value="" style="edgeStyle=orthogonalEdgeStyle;rounded=0;orthogonalLoop=1;jettySize=auto;html=1;endArrow=none;endFill=0;" edge="1" parent="1" source="w5KwIboTp7XOxFCGDFvr-14" target="w5KwIboTp7XOxFCGDFvr-22">
          <mxGeometry relative="1" as="geometry" />
        </mxCell>
        <mxCell id="w5KwIboTp7XOxFCGDFvr-14" value="Cell Block C" style="whiteSpace=wrap;html=1;rounded=0;" vertex="1" parent="1">
          <mxGeometry x="710" y="410" width="120" height="60" as="geometry" />
        </mxCell>
        <mxCell id="w5KwIboTp7XOxFCGDFvr-16" value="Yard 4" style="whiteSpace=wrap;html=1;rounded=0;" vertex="1" parent="1">
          <mxGeometry x="910" y="410" width="120" height="60" as="geometry" />
        </mxCell>
        <mxCell id="w5KwIboTp7XOxFCGDFvr-21" value="" style="edgeStyle=orthogonalEdgeStyle;rounded=0;orthogonalLoop=1;jettySize=auto;html=1;endArrow=none;endFill=0;" edge="1" parent="1" source="w5KwIboTp7XOxFCGDFvr-18" target="w5KwIboTp7XOxFCGDFvr-20">
          <mxGeometry relative="1" as="geometry" />
        </mxCell>
        <mxCell id="w5KwIboTp7XOxFCGDFvr-18" value="Cell Block B 1" style="whiteSpace=wrap;html=1;rounded=0;" vertex="1" parent="1">
          <mxGeometry x="310" y="270" width="120" height="60" as="geometry" />
        </mxCell>
        <mxCell id="w5KwIboTp7XOxFCGDFvr-20" value="Cell Block B 2" style="whiteSpace=wrap;html=1;rounded=0;" vertex="1" parent="1">
          <mxGeometry x="310" y="130" width="120" height="60" as="geometry" />
        </mxCell>
        <mxCell id="w5KwIboTp7XOxFCGDFvr-25" value="" style="edgeStyle=orthogonalEdgeStyle;rounded=0;orthogonalLoop=1;jettySize=auto;html=1;endArrow=none;endFill=0;" edge="1" parent="1" source="w5KwIboTp7XOxFCGDFvr-22" target="w5KwIboTp7XOxFCGDFvr-24">
          <mxGeometry relative="1" as="geometry" />
        </mxCell>
        <mxCell id="w5KwIboTp7XOxFCGDFvr-22" value="Cell Block C 1" style="whiteSpace=wrap;html=1;rounded=0;" vertex="1" parent="1">
          <mxGeometry x="710" y="270" width="120" height="60" as="geometry" />
        </mxCell>
        <mxCell id="w5KwIboTp7XOxFCGDFvr-24" value="Cell Block C 2" style="whiteSpace=wrap;html=1;rounded=0;" vertex="1" parent="1">
          <mxGeometry x="710" y="130" width="120" height="60" as="geometry" />
        </mxCell>
        <mxCell id="w5KwIboTp7XOxFCGDFvr-29" value="" style="edgeStyle=orthogonalEdgeStyle;rounded=0;orthogonalLoop=1;jettySize=auto;html=1;endArrow=none;endFill=0;" edge="1" parent="1" source="w5KwIboTp7XOxFCGDFvr-26" target="w5KwIboTp7XOxFCGDFvr-28">
          <mxGeometry relative="1" as="geometry" />
        </mxCell>
        <mxCell id="w5KwIboTp7XOxFCGDFvr-26" value="Maintainance Tunnel" style="whiteSpace=wrap;html=1;rounded=0;" vertex="1" parent="1">
          <mxGeometry x="310" y="550" width="120" height="60" as="geometry" />
        </mxCell>
        <mxCell id="w5KwIboTp7XOxFCGDFvr-31" value="" style="edgeStyle=orthogonalEdgeStyle;rounded=0;orthogonalLoop=1;jettySize=auto;html=1;endArrow=none;endFill=0;" edge="1" parent="1" source="w5KwIboTp7XOxFCGDFvr-28" target="w5KwIboTp7XOxFCGDFvr-30">
          <mxGeometry relative="1" as="geometry" />
        </mxCell>
        <mxCell id="w5KwIboTp7XOxFCGDFvr-28" value="Sewer" style="whiteSpace=wrap;html=1;rounded=0;" vertex="1" parent="1">
          <mxGeometry x="110" y="550" width="120" height="60" as="geometry" />
        </mxCell>
        <mxCell id="w5KwIboTp7XOxFCGDFvr-30" value="Secret Entrance" style="whiteSpace=wrap;html=1;rounded=0;" vertex="1" parent="1">
          <mxGeometry x="110" y="690" width="120" height="60" as="geometry" />
        </mxCell>
        <mxCell id="w5KwIboTp7XOxFCGDFvr-32" value="Front Gate" style="whiteSpace=wrap;html=1;rounded=0;" vertex="1" parent="1">
          <mxGeometry x="-490" y="410" width="120" height="60" as="geometry" />
        </mxCell>
      </root>
    </mxGraphModel>
  </diagram>
</mxfile>
